TITLE ""
FILE "Disc6Track13.mp3" MP3
  TRACK 01 AUDIO
    TITLE "Disc6Track13_01"
    INDEX 01 00:00:00
  TRACK 02 AUDIO
    TITLE "Disc6Track13_02"
    INDEX 01 00:01:08
  TRACK 03 AUDIO
    TITLE "Disc6Track13_03"
    INDEX 01 00:05:45
  TRACK 04 AUDIO
    TITLE "Disc6Track13_04"
    INDEX 01 00:06:68
  TRACK 05 AUDIO
    TITLE "Disc6Track13_05"
    INDEX 01 00:11:53
  TRACK 06 AUDIO
    TITLE "Disc6Track13_06"
    INDEX 01 00:12:08
  TRACK 07 AUDIO
    TITLE "Disc6Track13_07"
    INDEX 01 00:13:36
  TRACK 08 AUDIO
    TITLE "Disc6Track13_08"
    INDEX 01 00:16:25
  TRACK 09 AUDIO
    TITLE "Disc6Track13_09"
    INDEX 01 00:17:56
  TRACK 10 AUDIO
    TITLE "Disc6Track13_10"
    INDEX 01 00:18:14
  TRACK 11 AUDIO
    TITLE "Disc6Track13_11"
    INDEX 01 00:19:37
  TRACK 12 AUDIO
    TITLE "Disc6Track13_12"
    INDEX 01 00:24:07
  TRACK 13 AUDIO
    TITLE "Disc6Track13_13"
    INDEX 01 00:25:28
  TRACK 14 AUDIO
    TITLE "Disc6Track13_14"
    INDEX 01 00:28:60
  TRACK 15 AUDIO
    TITLE "Disc6Track13_15"
    INDEX 01 00:29:18
  TRACK 16 AUDIO
    TITLE "Disc6Track13_16"
    INDEX 01 00:30:58
  TRACK 17 AUDIO
    TITLE "Disc6Track13_17"
    INDEX 01 00:31:60
  TRACK 18 AUDIO
    TITLE "Disc6Track13_18"
    INDEX 01 00:33:29
  TRACK 19 AUDIO
    TITLE "Disc6Track13_19"
    INDEX 01 00:33:63
  TRACK 20 AUDIO
    TITLE "Disc6Track13_20"
    INDEX 01 00:35:11
  TRACK 21 AUDIO
    TITLE "Disc6Track13_21"
    INDEX 01 00:36:26
  TRACK 22 AUDIO
    TITLE "Disc6Track13_22"
    INDEX 01 00:37:47
  TRACK 23 AUDIO
    TITLE "Disc6Track13_23"
    INDEX 01 00:39:67
  TRACK 24 AUDIO
    TITLE "Disc6Track13_24"
    INDEX 01 00:40:25
  TRACK 25 AUDIO
    TITLE "Disc6Track13_25"
    INDEX 01 00:41:45
  TRACK 26 AUDIO
    TITLE "Disc6Track13_26"
    INDEX 01 00:42:58
  TRACK 27 AUDIO
    TITLE "Disc6Track13_27"
    INDEX 01 00:44:02
  TRACK 28 AUDIO
    TITLE "Disc6Track13_28"
    INDEX 01 00:49:13
  TRACK 29 AUDIO
    TITLE "Disc6Track13_29"
    INDEX 01 00:49:42
  TRACK 30 AUDIO
    TITLE "Disc6Track13_30"
    INDEX 01 00:50:47
  TRACK 31 AUDIO
    TITLE "Disc6Track13_31"
    INDEX 01 00:54:10
  TRACK 32 AUDIO
    TITLE "Disc6Track13_32"
    INDEX 01 00:55:15
  TRACK 33 AUDIO
    TITLE "Disc6Track13_33"
    INDEX 01 00:58:14
  TRACK 34 AUDIO
    TITLE "Disc6Track13_34"
    INDEX 01 00:58:45
  TRACK 35 AUDIO
    TITLE "Disc6Track13_35"
    INDEX 01 00:59:70
  TRACK 36 AUDIO
    TITLE "Disc6Track13_36"
    INDEX 01 01:01:57
  TRACK 37 AUDIO
    TITLE "Disc6Track13_37"
    INDEX 01 01:03:07
  TRACK 38 AUDIO
    TITLE "Disc6Track13_38"
    INDEX 01 01:06:50
  TRACK 39 AUDIO
    TITLE "Disc6Track13_39"
    INDEX 01 01:07:07
  TRACK 40 AUDIO
    TITLE "Disc6Track13_40"
    INDEX 01 01:08:36
  TRACK 41 AUDIO
    TITLE "Disc6Track13_41"
    INDEX 01 01:12:08
  TRACK 42 AUDIO
    TITLE "Disc6Track13_42"
    INDEX 01 01:13:35
  TRACK 43 AUDIO
    TITLE "Disc6Track13_43"
    INDEX 01 01:15:32
  TRACK 44 AUDIO
    TITLE "Disc6Track13_44"
    INDEX 01 01:15:63
  TRACK 45 AUDIO
    TITLE "Disc6Track13_45"
    INDEX 01 01:17:21
  TRACK 46 AUDIO
    TITLE "Disc6Track13_46"
    INDEX 01 01:19:71
  TRACK 47 AUDIO
    TITLE "Disc6Track13_47"
    INDEX 01 01:21:28
  TRACK 48 AUDIO
    TITLE "Disc6Track13_48"
    INDEX 01 01:27:07
  TRACK 49 AUDIO
    TITLE "Disc6Track13_49"
    INDEX 01 01:27:41
  TRACK 50 AUDIO
    TITLE "Disc6Track13_50"
    INDEX 01 01:28:60
  TRACK 51 AUDIO
    TITLE "Disc6Track13_51"
    INDEX 01 01:29:73
  TRACK 52 AUDIO
    TITLE "Disc6Track13_52"
    INDEX 01 01:31:21
  TRACK 53 AUDIO
    TITLE "Disc6Track13_53"
    INDEX 01 01:31:56
  TRACK 54 AUDIO
    TITLE "Disc6Track13_54"
    INDEX 01 01:33:06
  TRACK 55 AUDIO
    TITLE "Disc6Track13_55"
    INDEX 01 01:34:06
  TRACK 56 AUDIO
    TITLE "Disc6Track13_56"
    INDEX 01 01:35:30
  TRACK 57 AUDIO
    TITLE "Disc6Track13_57"
    INDEX 01 01:37:16
  TRACK 58 AUDIO
    TITLE "Disc6Track13_58"
    INDEX 01 01:37:45
  TRACK 59 AUDIO
    TITLE "Disc6Track13_59"
    INDEX 01 01:38:74
  TRACK 60 AUDIO
    TITLE "Disc6Track13_60"
    INDEX 01 01:41:15
  TRACK 61 AUDIO
    TITLE "Disc6Track13_61"
    INDEX 01 01:42:42
  TRACK 62 AUDIO
    TITLE "Disc6Track13_62"
    INDEX 01 01:44:49
  TRACK 63 AUDIO
    TITLE "Disc6Track13_63"
    INDEX 01 01:45:01
  TRACK 64 AUDIO
    TITLE "Disc6Track13_64"
    INDEX 01 01:46:24
  TRACK 65 AUDIO
    TITLE "Disc6Track13_65"
    INDEX 01 01:47:65
  TRACK 66 AUDIO
    TITLE "Disc6Track13_66"
    INDEX 01 01:49:15
